<svg enable-background="new 0 0 841.9 595.3" version="1.1" viewBox="191.8086395263672 121.1511001586914 452.391357421875 91.2489242553711" xml:space="preserve" xmlns="http://www.w3.org/2000/svg">
<style type="text/css">
	.st0{fill:#F0B156;}
	.st1{fill:#363F47;}
	.st2{fill:#EEBD98;}
	.st3{fill:#F4AC4D;}
	.st4{fill:#E58265;}
	.st5{fill:#AE8CBA;}
	.st6{fill:#7E4692;}
</style>
	<circle class="st0" cx="239.4" cy="166.5" r="7.2"></circle>
	<path class="st1" d="m239.4 174.9c-4.7 0-8.4-3.8-8.4-8.4 0-4.7 3.8-8.4 8.4-8.4 4.7 0 8.4 3.8 8.4 8.4s-3.8 8.4-8.4 8.4zm0-14.3c-3.2 0-5.9 2.6-5.9 5.9 0 3.2 2.6 5.9 5.9 5.9s5.9-2.6 5.9-5.9c-0.1-3.3-2.7-5.9-5.9-5.9z"></path>
	<path class="st2" d="m253.9 122.7c-2-0.7-3.9-0.1-3.8 1.6-1.9-0.7-4.8-1.3-4.2 1.5-1.3-0.3-5.2-0.8-5 2.2-1.6-0.4-3.2-0.2-3.5 2.6-0.2 1.9 2.8 4.4 3.9 6.1 1 1.5 2 2.6 2.9 4.2 0.8 1.5 0.3 2.5-0.1 2.7-0.6 0.4-1.1 0.8-1.7 1.1-0.7 0.4-0.5 1.1-0.5 1.4 0.2 2 2.2 4.2 6.8 4.5 3.3 0.2 4.9-0.5 6.4 1.1 1.4 1.6 4.4 7.7 5.7 10.4 4.2-2.8 13.4-8.8 15.5-10.1-2.6-8.9-10.9-25.2-22.4-29.3z"></path>
	<path class="st1" d="m260.2 163.9l-1.1-1.1c-1.5-3.2-3.8-9-5-10.3-0.6-0.7-1.2-0.7-3-0.7h-2.5c-5.6-0.3-7.8-3.2-8-5.6-0.1-0.5-0.2-1.8 1.1-2.6 0.4-0.2 0.7-0.5 1-0.7 0.2-0.1 0.3-0.2 0.5-0.3 0-0.1 0.1-0.5-0.2-1.1-0.5-1-1.1-1.8-1.8-2.7-0.3-0.4-0.6-0.9-1-1.3-0.3-0.4-0.8-0.9-1.3-1.5-1.5-1.6-3.1-3.5-2.9-5.5 0.2-1.5 0.8-2.6 1.7-3.3 0.6-0.4 1.2-0.6 2-0.6 0.2-0.6 0.6-1 1-1.3 1.1-0.9 2.7-1 3.9-0.9 0.2-0.6 0.5-1 0.8-1.2 1-0.8 2.5-0.8 3.8-0.4 0.2-0.3 0.4-0.6 0.7-0.8 1.1-0.8 2.8-1 4.4-0.4 11.7 4.2 20.3 20.3 23.2 30l0.3 0.9-0.8 0.5c-1.9 1.2-11.3 7.2-15.5 10.1l-1.3 0.8zm-8.3-14.7c1.5 0 2.9 0.2 4.1 1.5 1.5 1.6 4.5 9.7 5.7 12.2 4.1-2.7 10.3-9.8 13-11.6-2.9-9-11-23.7-21.3-27.4-1-0.4-1.7-0.2-2 0 0 0-0.1 0.1-0.1 0.3l0.2 2.1-2-0.8c-1.4-0.5-2.3-0.6-2.5-0.4 0 0 0 0.2 0.1 0.5l0.4 2-2-0.5c-1.1-0.3-2.6-0.3-3.2 0.1-0.1 0.1-0.2 0.2-0.2 0.7l0.1 1.8-1.7-0.4c-0.4-0.1-1-0.2-1.3 0s-0.5 0.7-0.6 1.5 1.3 2.4 2.2 3.4c0.6 0.6 1.1 1.2 1.5 1.7 0.3 0.4 0.6 0.9 0.9 1.3 0.7 1 1.4 1.9 2 3.1 1 1.9 0.5 3.7-0.5 4.4-0.2 0.1-0.4 0.2-0.5 0.4-0.4 0.2-0.7 0.5-1.1 0.7v0.1 0.2c0.1 1.5 1.9 3.1 5.6 3.3h2.3c0.3-0.2 0.6-0.2 0.9-0.2z"></path>
	<path class="st2" d="m245.8 132.8s-3.4-3.6-5.6-4.6"></path>
	<path class="st1" d="m244.8 133.7c-0.9-0.9-3.6-3.6-5.2-4.3l1.1-2.3c2.4 1.1 5.7 4.5 6 4.9l-1.9 1.7z"></path>
	<path class="st2" d="m250.3 129.9s-3.5-3.4-5.8-4.4"></path>
	<path class="st1" d="m249.4 130.8c-0.9-0.9-3.7-3.4-5.4-4.1l1-2.4c2.5 1 5.9 4.3 6.2 4.6l-1.8 1.9z"></path>
	<path class="st2" d="m254.2 127.6s-2.3-2.2-4.7-3.4"></path>
	<path class="st1" d="m253.3 128.5s-2.2-2.1-4.3-3.2l1.1-2.3c2.5 1.2 4.9 3.5 5 3.6l-1.8 1.9z"></path>
	<path class="st3" d="m286.1 161.1c-0.2-2.1-1.6-3.6-3.1-2.7-0.1-2-0.9-4.9-3.2-3.2-0.3-1.3-1.5-5-4.1-3.6-0.3-1.6-1.2-2.9-3.8-2.1-1.9 0.6-2.8 4.4-3.8 6.1-0.9 1.6-1.5 2.9-2.5 4.4-1 1.3-2.1 1.3-2.5 1.1-0.6-0.3-1.2-0.6-1.7-1-0.7-0.5-1.3 0-1.6 0.2-1.9 1.2-2.3 5-0.9 8 0.8 1.8 2.6 4.2 1.8 6.2s-5 7.3-7 9.6c4.3 2.5 13.7 8.3 15.8 9.7 6.6-6 17.8-20.5 16.6-32.7z"></path>
	<path class="st1" d="m269.5 195.5l-0.8-0.5c-1.9-1.2-11.3-7-15.8-9.6l-1.3-0.8 1-1.2c2.3-2.7 6.1-7.6 6.8-9.3 0.4-1-0.4-2.5-1.1-3.9-0.2-0.5-0.5-0.9-0.7-1.3-1.4-3.3-1.2-8 1.4-9.6 1.1-0.7 2.1-0.8 3-0.2 0.4 0.2 0.7 0.4 1.1 0.6 0.2 0.1 0.4 0.2 0.5 0.3 0.1 0 0.5-0.1 0.9-0.7 0.7-0.9 1.1-1.8 1.7-2.8 0.2-0.5 0.5-0.9 0.8-1.4s0.5-1.1 0.8-1.8c0.8-2 1.8-4.3 3.7-4.9 1.5-0.5 2.7-0.4 3.7 0.1 0.6 0.3 1.1 0.9 1.4 1.6 0.7-0.1 1.2 0.1 1.6 0.3 1.3 0.6 2.1 2 2.5 3.1 0.6-0.1 1.1 0 1.4 0.2 1.2 0.5 1.8 1.9 2 3.2 0.3 0 0.7 0.1 1 0.3 1.2 0.6 2.1 2.1 2.2 3.8 1.2 12.4-9.6 27-17.1 33.9l-0.7 0.6zm-14-11.6c4.2 2.5 11 6.7 13.7 8.4 6.9-6.5 16.6-20.1 15.6-31.1-0.1-1.1-0.6-1.7-0.8-1.8 0 0-0.1-0.1-0.3 0.1l-1.8 1.1-0.1-2.1c-0.1-1.5-0.5-2.3-0.7-2.5 0 0-0.2 0.1-0.4 0.3l-1.7 1.3-0.4-2c-0.2-1.1-0.9-2.5-1.5-2.8-0.1 0-0.3-0.1-0.7 0.1l-1.5 0.8-0.3-1.7c-0.1-0.4-0.3-1-0.6-1.2s-0.9-0.1-1.6 0.1c-0.8 0.3-1.6 2.2-2.1 3.5-0.3 0.8-0.6 1.5-1 2.1-0.3 0.5-0.5 0.9-0.7 1.4-0.6 1.1-1.1 2.1-1.9 3.1-1.3 1.8-3.1 2.1-4.2 1.4l-0.6-0.3c-0.4-0.2-0.8-0.4-1.2-0.7-0.1 0-0.2 0.1-0.2 0.1-1.2 0.8-1.7 3.8-0.5 6.5l0.6 1.2c0.9 1.8 2 3.9 1.2 6-0.9 1.9-4.5 6.5-6.3 8.7z"></path>
	<path class="st0" d="m273.8 158s1.8-4.6 1.8-7.1"></path>
	<path class="st1" d="m275 158.4l-2.4-0.9c0.5-1.2 1.7-4.7 1.7-6.6l2.6-0.1c0 2.7-1.7 7.2-1.9 7.6z"></path>
	<path class="st0" d="m278 161s1.6-4.7 1.4-7.1"></path>
	<path class="st1" d="m279.2 161.5l-2.4-0.8c0.4-1.2 1.5-4.8 1.4-6.6l2.6-0.2c0.1 2.6-1.4 7.1-1.6 7.6z"></path>
	<path class="st0" d="m282.2 163.3s0.9-2.6 0.9-4.8"></path>
	<path class="st1" d="m283.2 163.7l-2.1-0.7s0.8-2.5 0.8-4.5h2.2c0 2.4-0.9 5.1-0.9 5.2z"></path>
	<path class="st4" d="m268.9 203.9c1.7-1.3 2.3-3.2 0.7-4 1.6-1.2 3.7-3.4 1-4.4 1-0.9 3.4-3.9 0.9-5.4 1.2-1.1 1.9-2.6-0.2-4.3-1.5-1.3-5.2-0.1-7.2 0-1.8 0.1-3.3 0.3-5.1 0.1-1.7-0.1-2.2-1.1-2.2-1.6 0-0.7-0.1-1.3 0-2 0-0.8-0.8-0.7-1.1-0.8-2.2-1.1-6.9-0.2-8 2.9-0.6 1.9-1.5 4.4-3.6 4.8s-8.8-0.4-11.8-0.9c0.1 5 0.1 16 0.1 18.5 8.6 2.6 26.8 4.5 36.5-2.9z"></path>
	<path class="st1" d="m248.9 210.4c-6.4 0-12.6-1-17.1-2.3l-0.9-0.3v-1c0-2.7 0-13.6-0.1-18.5v-1.5l1.5 0.2c3.5 0.5 9.7 1.2 11.4 0.9 1.3-0.2 2.1-2.4 2.6-3.9s1.8-2.8 3.6-3.6c2-0.9 4.5-0.9 6.1-0.2h0.1c1.7 0.3 1.9 1.4 1.9 2.1v1.3 0.6c0.1 0.1 0.3 0.4 1.1 0.4 1.1 0.1 2.1 0 3.3 0 0.5 0 1.1-0.1 1.6-0.1s1.2-0.1 1.9-0.2c2.2-0.3 4.6-0.7 6.1 0.5 1.2 1 1.8 2.1 1.8 3.2 0 0.7-0.2 1.4-0.6 2 0.4 0.5 0.5 1.1 0.6 1.5 0.2 1.4-0.6 2.8-1.3 3.7 0.4 0.4 0.5 0.9 0.6 1.3 0.2 1.3-0.7 2.5-1.7 3.4 0.2 0.3 0.3 0.7 0.3 1 0.1 1.3-0.7 2.8-2.1 3.9-5.3 4.2-13.1 5.6-20.7 5.6zm-15.4-4.5c9.2 2.4 25.9 3.6 34.6-3.1 0.8-0.6 1.1-1.3 1.1-1.6 0-0.1 0-0.1-0.2-0.2l-1.9-1 1.7-1.2c1.2-0.9 1.7-1.6 1.8-1.9 0 0-0.1-0.1-0.4-0.2l-1.9-0.7 1.5-1.4c0.8-0.8 1.7-2 1.6-2.8 0-0.1 0-0.3-0.5-0.6l-1.5-0.9 1.3-1.2c0.3-0.3 0.7-0.7 0.7-1.1 0-0.3-0.3-0.8-0.9-1.3s-2.7-0.2-4.1 0c-0.8 0.1-1.6 0.3-2.3 0.3-0.5 0-1.1 0.1-1.6 0.1-1.2 0.1-2.3 0.2-3.7 0-2.2-0.2-3.4-1.6-3.4-2.8v-0.6-0.9c-0.1 0-0.3-0.1-0.4-0.1-0.8-0.4-2.5-0.5-4.1 0.2-0.8 0.3-1.8 0.9-2.1 2-0.7 2-1.8 5.1-4.6 5.6-2.1 0.4-8-0.3-10.7-0.7v16.1z"></path>
	<path class="st4" d="m264.7 191.6s4.8-0.9 6.9-2.2"></path>
	<path class="st1" d="m265 192.8l-0.5-2.5c1.3-0.2 4.9-1 6.5-2l1.4 2.2c-2.3 1.4-6.9 2.2-7.4 2.3z"></path>
	<path class="st4" d="m264.7 197s4.8-1.1 6.8-2.5"></path>
	<path class="st1" d="m265 198.2l-0.6-2.5c1.3-0.3 4.9-1.3 6.4-2.3l1.5 2.1c-2.2 1.5-6.8 2.6-7.3 2.7z"></path>
	<path class="st4" d="m264.6 201.5s3.1-0.7 5.4-2.1"></path>
	<path class="st1" d="m264.9 202.7l-0.6-2.5s3-0.7 5-1.9l1.3 2.2c-2.4 1.4-5.6 2.2-5.7 2.2z"></path>
	<path class="st3" d="m220.4 210.7c1.9 0.9 3.9 0.5 3.9-1.2 1.8 0.9 4.6 1.7 4.4-1.1 1.3 0.5 5.1 1.3 5.2-1.6 1.6 0.6 3.1 0.5 3.8-2.2 0.4-1.9-2.3-4.6-3.3-6.4-0.9-1.6-1.7-2.8-2.4-4.5-0.6-1.5-0.1-2.5 0.4-2.7 0.6-0.3 1.1-0.7 1.8-1s0.3-1.1 0.2-1.4c-0.8-2.8-2.8-5.6-6.9-5.7-2-0.1-3.9 0.6-5.2-1.1s-3.6-8.1-4.6-10.9c-4.4 2.4-14.2 7.4-16.5 8.5 1.5 8.9 8.1 25.9 19.2 31.3z"></path>
	<path class="st1" d="m222.3 212.4c-0.8 0-1.7-0.2-2.5-0.6-11.2-5.4-18.1-22.2-20.1-32.2l-0.2-1 0.9-0.4c2.4-1.2 12.1-6.1 16.4-8.5l1.3-0.7 0.5 1.4c1.1 3.3 3.3 9.2 4.4 10.6 0.5 0.7 1.1 0.7 2.7 0.6 0.5 0 1-0.1 1.6 0 4 0.1 7 2.6 8.1 6.7v0.1c0.7 1.8-0.4 2.6-0.9 2.8-0.4 0.2-0.8 0.4-1.1 0.6-0.2 0.1-0.3 0.2-0.5 0.3 0 0.1-0.2 0.5 0.1 1.1 0.4 1.1 0.9 1.9 1.5 2.9 0.3 0.4 0.5 0.9 0.8 1.4s0.7 1 1.1 1.6c1.3 1.8 2.8 3.8 2.3 5.7-0.4 1.5-1 2.6-2 3.1-0.6 0.3-1.3 0.4-2.1 0.4-0.3 0.6-0.7 1-1.1 1.2-1.2 0.8-2.8 0.7-4 0.5-0.2 0.6-0.6 0.9-0.9 1.1-1.1 0.7-2.6 0.5-3.8 0.1-0.2 0.3-0.5 0.5-0.8 0.7-0.3 0.4-1 0.5-1.7 0.5zm-19.8-32.3c2 9.3 8.5 24.7 18.5 29.4 1 0.5 1.7 0.4 2 0.2 0 0 0.1-0.1 0.1-0.3v-2.1l1.9 1c1.3 0.7 2.2 0.8 2.5 0.7v-0.5l-0.2-2.1 1.9 0.7c1.1 0.4 2.6 0.6 3.2 0.2 0.1-0.1 0.3-0.2 0.3-0.7l0.1-1.8 1.6 0.6c0.4 0.2 1 0.3 1.3 0.1s0.6-0.7 0.7-1.4c0.2-0.8-1.1-2.5-1.9-3.6-0.5-0.7-0.9-1.3-1.3-1.9-0.3-0.5-0.5-0.9-0.8-1.3-0.6-1-1.2-2-1.7-3.3-0.8-2-0.1-3.8 1-4.3 0.2-0.1 0.4-0.2 0.5-0.3 0.3-0.2 0.6-0.3 0.9-0.5v-0.1c-0.5-1.7-1.9-4.7-5.7-4.8h-1.3c-1.6 0.1-3.5 0.2-4.9-1.6-1.3-1.7-3.3-7.2-4.3-9.9-4.4 2.5-11.4 6-14.4 7.6z"></path>
	<path class="st0" d="m229.4 201.3s3 3.9 5.1 5.2"></path>
	<path class="st1" d="m233.9 207.6c-2.3-1.3-5.2-5.1-5.5-5.5l2-1.6c0.8 1 3.2 3.9 4.7 4.8l-1.2 2.3z"></path>
	<path class="st0" d="m224.6 203.8s3.2 3.8 5.4 4.9"></path>
	<path class="st1" d="m229.4 209.9c-2.4-1.2-5.4-4.8-5.7-5.2l2-1.6c0.8 1 3.3 3.8 5 4.6l-1.3 2.2z"></path>
	<path class="st0" d="m220.6 205.7s2.1 2.4 4.3 3.8"></path>
	<path class="st1" d="m224.2 210.7c-2.4-1.5-4.5-4-4.6-4.1l2-1.7s2 2.3 4 3.6l-1.4 2.2z"></path>
	<path class="st5" d="m193.3 175.2c0.3 2.1 1.8 3.5 3.2 2.5 0.3 2 1.3 4.8 3.4 2.9 0.4 1.3 1.9 4.9 4.4 3.3 0.4 1.6 1.4 2.8 4 1.8 1.8-0.7 2.4-4.6 3.3-6.4 0.8-1.6 1.3-3 2.2-4.6 0.9-1.4 2-1.5 2.4-1.3 0.6 0.3 1.2 0.5 1.8 0.9 0.7 0.4 1.1-0.3 1.3-0.6 1.5-2.7 1.4-6.4 0.8-8-0.8-1.8-2.9-3.9-2.2-5.9s4.5-7.6 6.3-10.1c-4.5-2.2-14.2-7.3-16.5-8.5-6.4 6.7-16.5 21.9-14.4 34z"></path>
	<path class="st1" d="m206.5 187.4c-0.6 0-1.1-0.1-1.5-0.3-0.6-0.3-1.1-0.8-1.5-1.5-0.6 0.1-1.2 0-1.6-0.2-1.3-0.5-2.2-1.9-2.7-2.9-0.6 0.1-1.1 0.1-1.4-0.1-1.2-0.5-1.9-1.8-2.2-3.1-0.3 0-0.7-0.1-1-0.2-1.2-0.5-2.2-1.9-2.5-3.7-2.1-12.3 7.6-27.6 14.7-35l0.7-0.7 0.9 0.5c2 1.1 11.9 6.3 16.4 8.5l1.4 0.7-0.9 1.2c-2.1 2.9-5.5 8-6.1 9.7-0.3 0.8 0.4 2 1.1 3.1 0.4 0.6 0.8 1.3 1.1 1.9 0.9 2.1 0.8 6.2-0.8 9.1-0.2 0.4-0.6 1.1-1.5 1.3-0.4 0.1-0.9 0.1-1.6-0.2-0.4-0.2-0.8-0.4-1.1-0.6-0.2-0.1-0.3-0.2-0.5-0.2-0.1 0-0.5 0.1-0.9 0.8-0.6 1-1 1.9-1.5 2.9-0.2 0.5-0.4 1-0.7 1.5-0.2 0.5-0.4 1.1-0.7 1.8-0.7 2.1-1.5 4.4-3.3 5.2-0.9 0.3-1.6 0.5-2.3 0.5zm-1.5-5.5l0.5 1.7c0.1 0.4 0.3 1 0.7 1.2 0.3 0.2 0.9 0.1 1.6-0.2s1.4-2.3 1.9-3.6c0.3-0.8 0.5-1.5 0.8-2.1 0.2-0.5 0.4-1 0.6-1.4 0.5-1.1 0.9-2.1 1.7-3.3 1.2-1.9 3-2.3 4.1-1.7l0.6 0.3c0.3 0.1 0.6 0.3 0.9 0.4 1.3-2.4 1.1-5.6 0.6-6.7-0.2-0.5-0.5-1-0.9-1.5-0.9-1.5-2-3.3-1.4-5.3 0.7-2.1 4-6.9 5.6-9.2-4.4-2.2-11.3-5.8-14.3-7.4-6.4 7-15.2 21.2-13.3 32.1 0.2 1 0.7 1.6 0.9 1.7 0.1 0 0.1 0 0.3-0.1l1.7-1.2 0.3 2.1c0.2 1.5 0.7 2.3 0.9 2.4 0 0 0.2-0.1 0.4-0.3l1.6-1.4 0.5 2c0.3 1.1 1 2.4 1.7 2.7 0.1 0 0.3 0.1 0.7-0.2l1.3-1z"></path>
	<path class="st5" d="m206.1 177.2s-1.5 4.7-1.2 7.2"></path>
	<path class="st1" d="m203.6 184.5c-0.2-2.6 1.1-7.2 1.3-7.7l2.5 0.8c-0.4 1.2-1.4 4.9-1.2 6.7l-2.6 0.2z"></path>
	<path class="st5" d="m201.3 174.7s-1.3 4.8-0.9 7.2"></path>
	<path class="st1" d="m199.1 182.1c-0.4-2.6 0.8-7.2 1-7.7l2.5 0.7c-0.3 1.3-1.1 4.9-0.9 6.7l-2.6 0.3z"></path>
	<path class="st5" d="m197.4 172.5s-0.8 3.1-0.6 5.7"></path>
	<path class="st1" d="m195.5 178.3c-0.2-2.8 0.6-6 0.7-6.1l2.5 0.6s-0.7 3-0.6 5.3l-2.6 0.2z"></path>
	<path class="st4" d="m208.7 130.5c-1.6 1.3-2.2 3.3-0.6 4-1.6 1.2-3.6 3.5-0.9 4.4-1 1-3.3 4-0.7 5.4-1.2 1.2-1.8 2.6 0.4 4.3 1.5 1.2 5.2-0.1 7.2-0.2 1.8-0.1 3.3-0.4 5.1-0.3 1.7 0.1 2.3 1 2.3 1.5 0 0.7 0.1 1.3 0.1 2 0 0.8 1 1 1.3 1.1 1.3 0.4 5.6-0.3 7.6-4 0.9-1.7 1.5-4 3.6-4.4s8.8 0.2 11.9 0.5c-0.3-5-0.6-16-0.6-18.5-9-2.2-27.2-3.5-36.7 4.2z"></path>
	<path class="st1" d="m223.7 154.2c-0.5 0-0.9-0.1-1.2-0.2h-0.1c-1.8-0.5-2.1-1.5-2.1-2.3 0-0.4 0-0.8-0.1-1.3v-0.6c-0.1-0.1-0.3-0.3-1.1-0.4-1.1-0.1-2.1 0-3.3 0.1-0.5 0.1-1.1 0.1-1.6 0.1s-1.2 0.2-1.9 0.3c-2.2 0.4-4.6 0.9-6.2-0.3-1.2-1-1.9-2-1.9-3.1 0-0.7 0.2-1.4 0.6-2-0.4-0.5-0.6-1.1-0.6-1.5-0.2-1.4 0.5-2.8 1.2-3.8-0.4-0.4-0.6-0.9-0.6-1.3-0.2-1.3 0.7-2.5 1.6-3.5-0.2-0.3-0.3-0.6-0.3-1-0.2-1.3 0.6-2.9 2-4 9.7-7.8 27.8-6.9 37.7-4.4l0.9 0.2v1c0 2.3 0.3 13.3 0.6 18.5l0.1 1.5-1.5-0.2c-3.5-0.4-9.7-0.9-11.5-0.5-1 0.2-1.4 1.1-2.1 2.6l-0.6 1.2c-2 3.6-5.7 4.9-8 4.9zm-0.9-2.8c0.1 0 0.2 0.1 0.2 0.1l0.2 0.1c0.7 0.2 4.4-0.3 6.1-3.4 0.2-0.3 0.4-0.7 0.5-1.1 0.7-1.6 1.7-3.5 4-4 2.1-0.4 8 0.1 10.7 0.3-0.2-4.9-0.5-12.9-0.5-16.1-9.2-2.1-26-2.8-34.5 4.1-0.8 0.7-1.1 1.4-1 1.7 0 0.1 0 0.1 0.2 0.2l1.9 0.9-1.7 1.3c-1.2 0.9-1.7 1.7-1.7 2 0 0 0.1 0.1 0.4 0.2l2 0.7-1.5 1.5c-0.8 0.8-1.6 2.1-1.5 2.8 0 0.1 0 0.3 0.5 0.5l1.6 0.8-1.3 1.2c-0.3 0.3-0.7 0.8-0.7 1.1s0.4 0.8 1 1.3 2.7 0.1 4.1-0.2c0.8-0.2 1.6-0.3 2.2-0.3 0.5 0 1.1-0.1 1.6-0.1 1.2-0.1 2.3-0.2 3.7-0.2 2.2 0.1 3.5 1.5 3.5 2.7v0.6c-0.1 0.5 0 0.9 0 1.3z"></path>
	<path class="st4" d="m213.2 142.7s-4.8 1-6.9 2.4"></path>
	<path class="st1" d="m207.1 146.2l-1.5-2.1c2.2-1.5 6.8-2.5 7.3-2.6l0.5 2.5c-1.2 0.2-4.8 1.1-6.3 2.2z"></path>
	<path class="st4" d="m213.1 137.3s-4.8 1.2-6.7 2.7"></path>
	<path class="st1" d="m207.1 141l-1.6-2.1c2.1-1.6 6.7-2.8 7.2-2.9l0.6 2.5c-1.2 0.4-4.8 1.4-6.2 2.5z"></path>
	<path class="st4" d="m213 132.8s-3.1 0.8-5.3 2.2"></path>
	<path class="st1" d="m208.4 136.1l-1.4-2.2c2.4-1.5 5.5-2.4 5.7-2.4l0.7 2.5c-0.1 0-3 0.8-5 2.1z"></path>
	<path class="st2" d="m274.8 147.2c-3.7-8.9-11-21.1-20.7-24.6-2-0.7-3.9-0.1-3.8 1.6-1.9-0.7-4.8-1.3-4.2 1.5-1.3-0.3-5.2-0.8-5 2.2-1.6-0.4-3.2-0.2-3.5 2.6-0.2 1.9 2.8 4.4 3.9 6.1 1 1.5 2 2.6 2.9 4.2 0.8 1.5 0.3 2.5-0.1 2.7-0.6 0.4-1.1 0.8-1.7 1.1-0.7 0.4-0.5 1.1-0.5 1.4 0.2 2 2.2 4.2 6.8 4.5 3.3 0.2 4.9-0.5 6.4 1.1"></path>
	<path class="st1" d="m254.3 152.4c-0.6-0.7-1.2-0.7-3-0.7h-2.5c-5.6-0.3-7.8-3.2-8-5.6-0.1-0.5-0.2-1.8 1.1-2.6 0.4-0.2 0.7-0.5 1-0.7 0.2-0.1 0.3-0.2 0.5-0.3 0-0.1 0.1-0.5-0.2-1.1-0.5-1-1.1-1.8-1.8-2.7-0.3-0.4-0.6-0.9-1-1.3-0.3-0.4-0.8-0.9-1.3-1.5-1.5-1.6-3.1-3.5-2.9-5.5 0.2-1.5 0.8-2.6 1.7-3.3 0.6-0.4 1.2-0.6 2-0.6 0.2-0.6 0.6-1 0.9-1.3 1.1-0.9 2.7-1 3.9-0.9 0.2-0.6 0.5-1 0.8-1.2 1-0.8 2.5-0.8 3.8-0.4 0.2-0.3 0.4-0.6 0.7-0.8 1.1-0.8 2.8-1 4.4-0.4 12.2 4.4 19.4 20.5 21.4 25.4l-2.3 1.2c-3.8-9.4-11.1-20.9-20-24.1-1-0.4-1.7-0.2-2 0 0 0-0.1 0.1-0.1 0.3l0.2 2.1-2-0.8c-1.4-0.5-2.3-0.6-2.5-0.4 0 0 0 0.2 0.1 0.5l0.4 2-2-0.5c-1.1-0.3-2.6-0.3-3.2 0.1-0.1 0.1-0.2 0.2-0.2 0.7l0.1 1.8-1.7-0.4c-0.4-0.1-1-0.2-1.3 0s-0.5 0.7-0.6 1.5 1.3 2.4 2.2 3.4c0.6 0.6 1.1 1.2 1.5 1.7 0.3 0.4 0.6 0.9 0.9 1.3 0.7 1 1.4 1.9 2 3.1 1 1.9 0.5 3.7-0.5 4.4-0.2 0.1-0.4 0.2-0.5 0.4-0.4 0.2-0.7 0.5-1.1 0.7v0.1 0.2c0.1 1.5 1.9 3.1 5.6 3.3h2.3c1.9 0 3.7-0.2 5.3 2.2l-2.1 0.7z"></path>
	<path class="st2" d="m245.9 132.8s-3.4-3.6-5.6-4.6"></path>
	<path class="st1" d="m245 133.7c-0.9-0.9-3.6-3.6-5.2-4.3l1.1-2.3c2.4 1.1 5.7 4.5 6 4.9l-1.9 1.7z"></path>
	<path class="st2" d="m250.5 129.9s-3.5-3.4-5.8-4.4"></path>
	<path class="st1" d="m249.6 130.8c-0.9-0.9-3.7-3.4-5.4-4.1l1-2.4c2.5 1 5.9 4.3 6.2 4.6l-1.8 1.9z"></path>
	<path class="st2" d="m254.3 127.6s-2.3-2.2-4.7-3.4"></path>
	<path class="st1" d="m253.4 128.5s-2.2-2.1-4.3-3.2l1.1-2.3c2.5 1.2 4.9 3.5 5 3.6l-1.8 1.9z"></path>
	<path class="st1" d="m341.5 140.9l-6.2 4.3c-2.1-4.7-6.5-6.2-10.2-6.2-8.1 0-12.1 7.2-12.1 13.8 0 7.4 5 14.1 12.2 14.1 3.8 0 8.3-1.8 10.2-6.3l6.6 3.8c-2.6 6.2-10.4 9.7-17.1 9.7-11.8 0-20.1-10.9-20.1-21.4 0-10.1 7.6-20.7 20.5-20.7 7.6-0.2 13.5 3.5 16.2 8.9z"></path>
	<path class="st1" d="m364.9 131.8c12.1 0 20.1 10.7 20.1 21.2 0 11-8.6 21-20.3 21-12.1 0-20.3-10.4-20.3-21.1 0.1-11.1 8.7-21.1 20.5-21.1zm12 21.1c0-7.2-4.6-13.9-12.1-13.9-7.8 0-12.1 7-12.1 13.9 0 7.2 4.5 13.9 12.1 13.9 7.9 0 12.1-7.1 12.1-13.9z"></path>
	<path class="st1" d="m391.3 132.1h8.1v34.5h21.2v7.1h-29.3v-41.6z"></path>
	<path class="st1" d="m442.5 131.8c12.1 0 20.1 10.7 20.1 21.2 0 11-8.5 21-20.3 21-12.1 0-20.3-10.4-20.3-21.1 0-11.1 8.7-21.1 20.5-21.1zm12 21.1c0-7.2-4.6-13.9-12.1-13.9-7.8 0-12.1 7-12.1 13.9 0 7.2 4.5 13.9 12.1 13.9 7.8 0 12.1-7.1 12.1-13.9z"></path>
	<path class="st1" d="m468.8 132.1h18.4c7.7 0 13.2 7 13.2 13.8 0 5.3-2.9 10.2-7.5 12.1l9.5 15.6h-8.9l-8.6-13.9h-8.1v13.9h-8.1v-41.5zm18.2 20.5c3 0 5.3-3 5.3-6.7 0-3.9-2.8-6.7-5.6-6.7h-9.8v13.5h10.1z"></path>
	<path class="st4" d="m507.8 132.1h27.9v7.1h-19.9v10.7h16.5v6.6h-16.5v17.2h-8.1v-41.6z"></path>
	<path class="st4" d="m557.9 132.1l15.3 41.6h-8.3l-3.9-10.4h-14.5l-3.8 10.4h-8.3l15.3-41.6h8.2zm-4.1 8.3l-6 17.2h11.7l-5.7-17.2z"></path>
	<path class="st4" d="m590.8 138.9c-4.4 0-6.6 1.7-6.6 4.7 0 3.4 3.2 4.3 9.5 5.9 8.2 2.1 13.4 4.7 13.4 12.3 0 9-7.3 12.4-15.4 12.4-6.2 0-12.6-2-17.5-5.4l3.6-7c1.4 1.4 7.7 5.1 14 5.1 4.4 0 6.7-1.5 6.7-4.3 0-3.7-4.3-4.7-10.8-6.5-7.9-2.2-11.8-4.9-11.8-11.2 0-8.5 6.7-13.1 15.2-13.1 5.8 0 10.9 2.2 14.5 4.6l-3.6 6.6c-1.1-1.2-6.2-4.1-11.2-4.1z"></path>
	<path class="st4" d="m630.9 139.2v34.5h-8v-34.5h-13.3v-7.1h34.6v7.1h-13.3z"></path>
	<path class="st6" d="m308.7 196.3h0.3c1.1 0 2-1 2.2-5.1l0.1-3.5h8.3v8.6h1.5v5.2h-2.5v-2.7h-7.5v2.7h-2.5v-5.2zm8.1 0v-6.3h-3l-0.1 1.4c-0.1 2.8-0.5 4.2-1.1 4.8h4.2z"></path>
	<path class="st6" d="M323,187.7h2.8v7.3l5-7.3h2.6v11.1h-2.8v-7.1l-4.9,7.1H323V187.7z"></path>
	<path class="st6" d="m335.1 196.5l2.3-1c0.5 0.7 1.2 1.2 2.4 1.2 1.3 0 2.1-0.6 2.1-1.4s-0.6-1.3-1.8-1.3h-1.1v-1.8h1.2c0.8 0 1.3-0.5 1.3-1.2s-0.6-1.2-1.7-1.2c-1 0-1.6 0.4-2 1.1l-2.1-1.1c0.8-1.4 2.3-2.2 4.3-2.2 2.3 0 4.1 1.1 4.1 3.1 0 1-0.4 2-1.5 2.4 1.4 0.4 2.1 1.4 2.1 2.7 0 2.1-1.9 3.3-4.6 3.3-2.5-0.2-4.1-1.1-5-2.6z"></path>
	<path class="st6" d="m350.5 191.9c0.9 0 1.9 0.1 2.7 0.4v-0.6c0-1.4-0.8-2.2-2.5-2.2-1.2 0-2.3 0.4-3.5 1.2l-0.9-1.9c1.5-1 3-1.4 4.7-1.4 3.2 0 5 1.6 5 4.6v3.5c0 0.6 0.2 0.8 0.7 0.9v2.3c-0.5 0.1-0.9 0.1-1.2 0.1-1.1 0-1.7-0.6-1.8-1.3l-0.1-0.6c-1 1.2-2.5 1.9-4 1.9-2.2 0-3.9-1.5-3.9-3.5s2-3.4 4.8-3.4zm2.7 3.2v-1.1c-0.7-0.3-1.5-0.4-2.2-0.4-1.5 0-2.5 0.7-2.5 1.7 0 0.8 0.7 1.7 2 1.7 0.8 0 1.7-0.3 2.2-0.8 0.3-0.5 0.5-0.9 0.5-1.1z"></path>
	<path class="st6" d="m358.6 187.7h2.8v7.3l5-7.3h2.6v11.1h-2.8v-7.1l-4.9 7.1h-2.6v-11.1zm2-4.1h1.5c0 0.8 0.6 1.5 1.8 1.5s1.7-0.6 1.8-1.5h1.5c0 1.6-1.2 2.7-3.3 2.7s-3.3-1.1-3.3-2.7z"></path>
	<path class="st6" d="m371.6 187.6h2.8v4.2h4.5v-4.2h2.8v11.1h-2.8v-4.5h-4.5v4.5h-2.8v-11.1z"></path>
	<path class="st6" d="m384.3 191.6h6.4v2.6h-6.4v-2.6z"></path>
	<path class="st6" d="m393.2 187.6h3l3.5 6.4 3.5-6.4h2.9v11.1h-2.7v-7.2l-2.8 5.2h-1.8l-2.9-5.2v7.2h-2.7v-11.1z"></path>
	<path class="st6" d="m412.7 191.9c0.9 0 1.9 0.1 2.7 0.4v-0.6c0-1.4-0.8-2.2-2.5-2.2-1.2 0-2.3 0.4-3.5 1.2l-0.9-1.9c1.5-1 3-1.4 4.7-1.4 3.2 0 5 1.6 5 4.6v3.5c0 0.6 0.2 0.8 0.7 0.9v2.3c-0.5 0.1-0.9 0.1-1.2 0.1-1.1 0-1.7-0.6-1.8-1.3l-0.1-0.6c-1 1.2-2.5 1.9-4 1.9-2.2 0-3.9-1.5-3.9-3.5s2-3.4 4.8-3.4zm2.7 3.2v-1.1c-0.7-0.3-1.5-0.4-2.2-0.4-1.5 0-2.5 0.7-2.5 1.7 0 0.8 0.7 1.7 2 1.7 0.8 0 1.7-0.3 2.2-0.8 0.2-0.5 0.5-0.9 0.5-1.1z"></path>
	<path class="st6" d="m420.1 193.2c0-3.1 2.2-5.7 5.8-5.7 2.4 0 4.2 1.1 5 2.8l-2.8 0.8c-0.5-0.8-1.3-1.3-2.3-1.3-1.6 0-2.9 1.4-2.9 3.3s1.3 3.3 2.9 3.3c1 0 2-0.6 2.3-1.3l2.8 0.8c-0.8 1.7-2.6 2.9-5 2.9-3.5 0.2-5.8-2.5-5.8-5.6z"></path>
	<path class="st6" d="m435.3 190.1h-3.5v-2.5h9.9v2.5h-3.5v8.6h-2.8v-8.6z"></path>
	<path class="st6" d="m442.6 193.3c0-3.2 2.2-5.8 5.9-5.8s5.8 2.7 5.8 5.7c0 0.4 0 0.7-0.1 1h-8.6c0.1 1.7 1.5 2.8 2.9 2.8 1.1 0 2.3-0.6 2.6-1.5l2.4 0.7c-0.8 1.7-2.7 2.9-5.2 2.9-3.4-0.1-5.7-2.8-5.7-5.8zm8.7-1c-0.2-1.7-1.4-2.8-2.9-2.8s-2.7 1.1-2.9 2.8h5.8z"></path>
	<path class="st6" d="m458.8 203.2h-2.8v-15.6h2.5v1.9c0.8-1.3 2.2-2.1 3.8-2.1 3 0 5.2 2.6 5.2 5.7 0 3.2-2 5.8-4.8 5.8-1.7 0-3.1-0.8-3.8-2.2v6.5zm2.7-13.3c-1.1 0-2.3 0.8-2.7 1.9v2.6c0.5 1.2 1.7 2.2 2.9 2.2 1.7 0 2.9-1.6 2.9-3.4 0-1.9-1.3-3.3-3.1-3.3z"></path>
	<path class="st6" d="m468.7 193.2c0-3.1 2.2-5.7 5.8-5.7 2.4 0 4.2 1.1 5 2.8l-2.8 0.8c-0.5-0.8-1.3-1.3-2.3-1.3-1.6 0-2.9 1.4-2.9 3.3s1.3 3.3 2.9 3.3c1 0 2-0.6 2.3-1.3l2.8 0.8c-0.8 1.7-2.6 2.9-5 2.9-3.5 0.2-5.8-2.5-5.8-5.6z"></path>
	<path class="st6" d="m481.3 187.6h2.8v4.2h1l3-4.2h3.1l-3.9 5.4 4.4 5.7h-3.2l-3.3-4.4h-0.9v4.4h-2.8v-11.1z"></path>
	<path class="st6" d="m497.3 191.9c0.9 0 1.9 0.1 2.7 0.4v-0.6c0-1.4-0.8-2.2-2.5-2.2-1.2 0-2.3 0.4-3.5 1.2l-0.9-1.9c1.5-1 3-1.4 4.7-1.4 3.2 0 5 1.6 5 4.6v3.5c0 0.6 0.2 0.8 0.7 0.9v2.3c-0.5 0.1-0.9 0.1-1.2 0.1-1.1 0-1.7-0.6-1.8-1.3l-0.1-0.6c-1 1.2-2.5 1.9-4 1.9-2.2 0-3.9-1.5-3.9-3.5s2-3.4 4.8-3.4zm2.7 3.2v-1.1c-0.7-0.3-1.5-0.4-2.2-0.4-1.5 0-2.5 0.7-2.5 1.7 0 0.8 0.7 1.7 2 1.7 0.8 0 1.7-0.3 2.2-0.8 0.2-0.5 0.5-0.9 0.5-1.1z"></path>
	<path class="st6" d="m507.7 194.4c-1.3-0.4-2.2-1.4-2.2-3.2 0-2.2 1.6-3.6 4-3.6h5.3v11.1h-2.8v-3.8h-1.5l-2.4 3.8h-3.1l2.7-4.3zm4.2-1.5v-3.1h-2c-1 0-1.7 0.6-1.7 1.5s0.5 1.6 1.5 1.6h2.2z"></path>
</svg>
