<svg version="1.1" id="Layer_1" xmlns="http://www.w3.org/2000/svg" xmlns:xlink="http://www.w3.org/1999/xlink" x="0px" y="0px" viewBox="191.8086395263672 353.151123046875 452.391357421875 91.24887084960938" style="enable-background:new 0 0 841.9 595.3;" xml:space="preserve">
<style type="text/css">
	.st0{fill:#FFFFFF;}
	.st1{fill:#363F47;}
	.st2{fill:#EEBD98;}
	.st3{fill:#F0B156;}
	.st4{fill:#E58265;}
	.st5{fill:#AE8CBA;}
</style>
	<circle class="st0" cx="239.4" cy="398.5" r="7.2"></circle>
	<path class="st1" d="M239.4,406.9c-4.7,0-8.4-3.8-8.4-8.4c0-4.7,3.8-8.4,8.4-8.4c4.7,0,8.4,3.8,8.4,8.4
	C247.8,403.1,244,406.9,239.4,406.9z M239.4,392.6c-3.2,0-5.9,2.6-5.9,5.9c0,3.2,2.6,5.9,5.9,5.9s5.9-2.6,5.9-5.9
	C245.2,395.2,242.6,392.6,239.4,392.6z"></path>
	<path class="st0" d="M253.9,354.7c-2-0.7-3.9-0.1-3.8,1.6c-1.9-0.7-4.8-1.3-4.2,1.5c-1.3-0.3-5.2-0.8-5,2.2
	c-1.6-0.4-3.2-0.2-3.5,2.6c-0.2,1.9,2.8,4.4,3.9,6.1c1,1.5,2,2.6,2.9,4.2c0.8,1.5,0.3,2.5-0.1,2.7c-0.6,0.4-1.1,0.8-1.7,1.1
	c-0.7,0.4-0.5,1.1-0.5,1.4c0.2,2,2.2,4.2,6.8,4.5c3.3,0.2,4.9-0.5,6.4,1.1c1.4,1.6,4.4,7.7,5.7,10.4c4.2-2.8,13.4-8.8,15.5-10.1
	C273.7,375.1,265.4,358.8,253.9,354.7z"></path>
	<path class="st1" d="M260.2,395.9l-1.1-1.1c-1.5-3.2-3.8-9-5-10.3c-0.6-0.7-1.2-0.7-3-0.7c-0.7,0-1.5,0-2.5,0
	c-5.6-0.3-7.8-3.2-8-5.6c-0.1-0.5-0.2-1.8,1.1-2.6c0.4-0.2,0.7-0.5,1-0.7c0.2-0.1,0.3-0.2,0.5-0.3c0-0.1,0.1-0.5-0.2-1.1
	c-0.5-1-1.1-1.8-1.8-2.7c-0.3-0.4-0.6-0.9-1-1.3c-0.3-0.4-0.8-0.9-1.3-1.5c-1.5-1.6-3.1-3.5-2.9-5.5c0.2-1.5,0.8-2.6,1.7-3.3
	c0.6-0.4,1.2-0.6,2-0.6c0.2-0.6,0.6-1,1-1.3c1.1-0.9,2.7-1,3.9-0.9c0.2-0.6,0.5-1,0.8-1.2c1-0.8,2.5-0.8,3.8-0.4
	c0.2-0.3,0.4-0.6,0.7-0.8c1.1-0.8,2.8-1,4.4-0.4c11.7,4.2,20.3,20.3,23.2,30l0.3,0.9L277,385c-1.9,1.2-11.3,7.2-15.5,10.1
	L260.2,395.9z M251.9,381.2c1.5,0,2.9,0.2,4.1,1.5c1.5,1.6,4.5,9.7,5.7,12.2c4.1-2.7,10.3-9.8,13-11.6c-2.9-9-11-23.7-21.3-27.4l0,0
	c-1-0.4-1.7-0.2-2,0c0,0-0.1,0.1-0.1,0.3l0.2,2.1l-2-0.8c-1.4-0.5-2.3-0.6-2.5-0.4c0,0,0,0.2,0.1,0.5l0.4,2l-2-0.5
	c-1.1-0.3-2.6-0.3-3.2,0.1c-0.1,0.1-0.2,0.2-0.2,0.7l0.1,1.8l-1.7-0.4c-0.4-0.1-1-0.2-1.3,0c-0.3,0.2-0.5,0.7-0.6,1.5
	c-0.1,0.8,1.3,2.4,2.2,3.4c0.6,0.6,1.1,1.2,1.5,1.7c0.3,0.4,0.6,0.9,0.9,1.3c0.7,1,1.4,1.9,2,3.1c1,1.9,0.5,3.7-0.5,4.4
	c-0.2,0.1-0.4,0.2-0.5,0.4c-0.4,0.2-0.7,0.5-1.1,0.7c0,0,0,0,0,0.1l0,0.2c0.1,1.5,1.9,3.1,5.6,3.3c0.9,0,1.6,0,2.3,0
	C251.3,381.2,251.6,381.2,251.9,381.2z"></path>
	<g>
	<path class="st2" d="M245.8,364.8c0,0-3.4-3.6-5.6-4.6"></path>
		<path class="st1" d="M244.8,365.7c-0.9-0.9-3.6-3.6-5.2-4.3l1.1-2.3c2.4,1.1,5.7,4.5,6,4.9L244.8,365.7z"></path>
</g>
	<g>
	<path class="st2" d="M250.3,361.9c0,0-3.5-3.4-5.8-4.4"></path>
		<path class="st1" d="M249.4,362.8c-0.9-0.9-3.7-3.4-5.4-4.1l1-2.4c2.5,1,5.9,4.3,6.2,4.6L249.4,362.8z"></path>
</g>
	<g>
	<path class="st2" d="M254.2,359.6c0,0-2.3-2.2-4.7-3.4"></path>
		<path class="st1" d="M253.3,360.5c0,0-2.2-2.1-4.3-3.2l1.1-2.3c2.5,1.2,4.9,3.5,5,3.6L253.3,360.5z"></path>
</g>
	<path class="st0" d="M286.1,393.1c-0.2-2.1-1.6-3.6-3.1-2.7c-0.1-2-0.9-4.9-3.2-3.2c-0.3-1.3-1.5-5-4.1-3.6
	c-0.3-1.6-1.2-2.9-3.8-2.1c-1.9,0.6-2.8,4.4-3.8,6.1c-0.9,1.6-1.5,2.9-2.5,4.4c-1,1.3-2.1,1.3-2.5,1.1c-0.6-0.3-1.2-0.6-1.7-1
	c-0.7-0.5-1.3,0-1.6,0.2c-1.9,1.2-2.3,5-0.9,8c0.8,1.8,2.6,4.2,1.8,6.2c-0.8,2-5,7.3-7,9.6c4.3,2.5,13.7,8.3,15.8,9.7
	C276.1,419.8,287.3,405.3,286.1,393.1z"></path>
	<path class="st1" d="M269.5,427.5l-0.8-0.5c-1.9-1.2-11.3-7-15.8-9.6l-1.3-0.8l1-1.2c2.3-2.7,6.1-7.6,6.8-9.3c0.4-1-0.4-2.5-1.1-3.9
	c-0.2-0.5-0.5-0.9-0.7-1.3c-1.4-3.3-1.2-8,1.4-9.6c1.1-0.7,2.1-0.8,3-0.2c0.4,0.2,0.7,0.4,1.1,0.6c0.2,0.1,0.4,0.2,0.5,0.3
	c0.1,0,0.5-0.1,0.9-0.7c0.7-0.9,1.1-1.8,1.7-2.8c0.2-0.5,0.5-0.9,0.8-1.4c0.3-0.5,0.5-1.1,0.8-1.8c0.8-2,1.8-4.3,3.7-4.9
	c1.5-0.5,2.7-0.4,3.7,0.1c0.6,0.3,1.1,0.9,1.4,1.6c0.7-0.1,1.2,0.1,1.6,0.3c1.3,0.6,2.1,2,2.5,3.1c0.6-0.1,1.1,0,1.4,0.2
	c1.2,0.5,1.8,1.9,2,3.2c0.3,0,0.7,0.1,1,0.3c1.2,0.6,2.1,2.1,2.2,3.8c1.2,12.4-9.6,27-17.1,33.9L269.5,427.5z M255.5,415.9
	c4.2,2.5,11,6.7,13.7,8.4c6.9-6.5,16.6-20.1,15.6-31.1v0c-0.1-1.1-0.6-1.7-0.8-1.8c0,0-0.1-0.1-0.3,0.1l-1.8,1.1l-0.1-2.1
	c-0.1-1.5-0.5-2.3-0.7-2.5c0,0-0.2,0.1-0.4,0.3l-1.7,1.3l-0.4-2c-0.2-1.1-0.9-2.5-1.5-2.8c-0.1,0-0.3-0.1-0.7,0.1l-1.5,0.8l-0.3-1.7
	c-0.1-0.4-0.3-1-0.6-1.2c-0.3-0.2-0.9-0.1-1.6,0.1c-0.8,0.3-1.6,2.2-2.1,3.5c-0.3,0.8-0.6,1.5-1,2.1c-0.3,0.5-0.5,0.9-0.7,1.4
	c-0.6,1.1-1.1,2.1-1.9,3.1c-1.3,1.8-3.1,2.1-4.2,1.4c-0.2-0.1-0.4-0.2-0.6-0.3c-0.4-0.2-0.8-0.4-1.2-0.7c-0.1,0-0.2,0.1-0.2,0.1
	c-1.2,0.8-1.7,3.8-0.5,6.5c0.2,0.4,0.4,0.8,0.6,1.2c0.9,1.8,2,3.9,1.2,6C260.9,409.1,257.3,413.7,255.5,415.9z"></path>
	<g>
	<path class="st3" d="M273.8,390c0,0,1.8-4.6,1.8-7.1"></path>
		<path class="st1" d="M275,390.4l-2.4-0.9c0.5-1.2,1.7-4.7,1.7-6.6l2.6-0.1C276.9,385.5,275.2,390,275,390.4z"></path>
</g>
	<g>
	<path class="st3" d="M278,393c0,0,1.6-4.7,1.4-7.1"></path>
		<path class="st1" d="M279.2,393.5l-2.4-0.8c0.4-1.2,1.5-4.8,1.4-6.6l2.6-0.2C280.9,388.5,279.4,393,279.2,393.5z"></path>
</g>
	<g>
	<path class="st3" d="M282.2,395.3c0,0,0.9-2.6,0.9-4.8"></path>
		<path class="st1" d="M283.2,395.7l-2.1-0.7c0,0,0.8-2.5,0.8-4.5l2.2,0C284.1,392.9,283.2,395.6,283.2,395.7z"></path>
</g>
	<path class="st0" d="M268.9,435.9c1.7-1.3,2.3-3.2,0.7-4c1.6-1.2,3.7-3.4,1-4.4c1-0.9,3.4-3.9,0.9-5.4c1.2-1.1,1.9-2.6-0.2-4.3
	c-1.5-1.3-5.2-0.1-7.2,0c-1.8,0.1-3.3,0.3-5.1,0.1c-1.7-0.1-2.2-1.1-2.2-1.6c0-0.7-0.1-1.3,0-2c0-0.8-0.8-0.7-1.1-0.8
	c-2.2-1.1-6.9-0.2-8,2.9c-0.6,1.9-1.5,4.4-3.6,4.8c-2.1,0.4-8.8-0.4-11.8-0.9c0.1,5,0.1,16,0.1,18.5
	C241,441.4,259.2,443.3,268.9,435.9z"></path>
	<path class="st1" d="M248.9,442.4c-6.4,0-12.6-1-17.1-2.3l-0.9-0.3l0-1c0-2.7,0-13.6-0.1-18.5l0-1.5l1.5,0.2
	c3.5,0.5,9.7,1.2,11.4,0.9c1.3-0.2,2.1-2.4,2.6-3.9c0.5-1.5,1.8-2.8,3.6-3.6c2-0.9,4.5-0.9,6.1-0.2l0.1,0c1.7,0.3,1.9,1.4,1.9,2.1
	c0,0.4,0,0.8,0,1.3c0,0.2,0,0.4,0,0.6c0.1,0.1,0.3,0.4,1.1,0.4c1.1,0.1,2.1,0,3.3,0c0.5,0,1.1-0.1,1.6-0.1c0.5,0,1.2-0.1,1.9-0.2
	c2.2-0.3,4.6-0.7,6.1,0.5c1.2,1,1.8,2.1,1.8,3.2c0,0.7-0.2,1.4-0.6,2c0.4,0.5,0.5,1.1,0.6,1.5c0.2,1.4-0.6,2.8-1.3,3.7
	c0.4,0.4,0.5,0.9,0.6,1.3c0.2,1.3-0.7,2.5-1.7,3.4c0.2,0.3,0.3,0.7,0.3,1c0.1,1.3-0.7,2.8-2.1,3.9l0,0
	C264.3,441,256.5,442.4,248.9,442.4z M233.5,437.9c9.2,2.4,25.9,3.6,34.6-3.1l0,0c0.8-0.6,1.1-1.3,1.1-1.6c0-0.1,0-0.1-0.2-0.2
	l-1.9-1l1.7-1.2c1.2-0.9,1.7-1.6,1.8-1.9l0,0c0,0-0.1-0.1-0.4-0.2l-1.9-0.7l1.5-1.4c0.8-0.8,1.7-2,1.6-2.8c0-0.1,0-0.3-0.5-0.6
	l-1.5-0.9l1.3-1.2c0.3-0.3,0.7-0.7,0.7-1.1c0-0.3-0.3-0.8-0.9-1.3c-0.6-0.5-2.7-0.2-4.1,0c-0.8,0.1-1.6,0.3-2.3,0.3
	c-0.5,0-1.1,0.1-1.6,0.1c-1.2,0.1-2.3,0.2-3.7,0c-2.2-0.2-3.4-1.6-3.4-2.8c0-0.2,0-0.4,0-0.6c0-0.3,0-0.6,0-0.9
	c-0.1,0-0.3-0.1-0.4-0.1c-0.8-0.4-2.5-0.5-4.1,0.2c-0.8,0.3-1.8,0.9-2.1,2c-0.7,2-1.8,5.1-4.6,5.6c-2.1,0.4-8-0.3-10.7-0.7
	C233.5,426.7,233.5,434.5,233.5,437.9z"></path>
	<g>
	<path class="st4" d="M264.7,423.6c0,0,4.8-0.9,6.9-2.2"></path>
		<path class="st1" d="M265,424.8l-0.5-2.5c1.3-0.2,4.9-1,6.5-2l1.4,2.2C270.1,423.9,265.5,424.7,265,424.8z"></path>
</g>
	<g>
	<path class="st4" d="M264.7,429c0,0,4.8-1.1,6.8-2.5"></path>
		<path class="st1" d="M265,430.2l-0.6-2.5c1.3-0.3,4.9-1.3,6.4-2.3l1.5,2.1C270.1,429,265.5,430.1,265,430.2z"></path>
</g>
	<g>
	<path class="st4" d="M264.6,433.5c0,0,3.1-0.7,5.4-2.1"></path>
		<path class="st1" d="M264.9,434.7l-0.6-2.5c0,0,3-0.7,5-1.9l1.3,2.2C268.2,433.9,265,434.7,264.9,434.7z"></path>
</g>
	<path class="st0" d="M220.4,442.7c1.9,0.9,3.9,0.5,3.9-1.2c1.8,0.9,4.6,1.7,4.4-1.1c1.3,0.5,5.1,1.3,5.2-1.6
	c1.6,0.6,3.1,0.5,3.8-2.2c0.4-1.9-2.3-4.6-3.3-6.4c-0.9-1.6-1.7-2.8-2.4-4.5c-0.6-1.5-0.1-2.5,0.4-2.7c0.6-0.3,1.1-0.7,1.8-1
	c0.7-0.3,0.3-1.1,0.2-1.4c-0.8-2.8-2.8-5.6-6.9-5.7c-2-0.1-3.9,0.6-5.2-1.1c-1.3-1.7-3.6-8.1-4.6-10.9c-4.4,2.4-14.2,7.4-16.5,8.5
	C202.7,420.3,209.3,437.3,220.4,442.7z"></path>
	<path class="st1" d="M222.3,444.4c-0.8,0-1.7-0.2-2.5-0.6l0,0c-11.2-5.4-18.1-22.2-20.1-32.2l-0.2-1l0.9-0.4
	c2.4-1.2,12.1-6.1,16.4-8.5l1.3-0.7l0.5,1.4c1.1,3.3,3.3,9.2,4.4,10.6c0.5,0.7,1.1,0.7,2.7,0.6c0.5,0,1-0.1,1.6,0
	c4,0.1,7,2.6,8.1,6.7l0,0.1c0.7,1.8-0.4,2.6-0.9,2.8c-0.4,0.2-0.8,0.4-1.1,0.6c-0.2,0.1-0.3,0.2-0.5,0.3c0,0.1-0.2,0.5,0.1,1.1
	c0.4,1.1,0.9,1.9,1.5,2.9c0.3,0.4,0.5,0.9,0.8,1.4c0.3,0.5,0.7,1,1.1,1.6c1.3,1.8,2.8,3.8,2.3,5.7c-0.4,1.5-1,2.6-2,3.1
	c-0.6,0.3-1.3,0.4-2.1,0.4c-0.3,0.6-0.7,1-1.1,1.2c-1.2,0.8-2.8,0.7-4,0.5c-0.2,0.6-0.6,0.9-0.9,1.1c-1.1,0.7-2.6,0.5-3.8,0.1
	c-0.2,0.3-0.5,0.5-0.8,0.7C223.7,444.3,223,444.4,222.3,444.4z M202.5,412.1c2,9.3,8.5,24.7,18.5,29.4l0,0c1,0.5,1.7,0.4,2,0.2
	c0,0,0.1-0.1,0.1-0.3l0-2.1l1.9,1c1.3,0.7,2.2,0.8,2.5,0.7c0,0,0-0.2,0-0.5l-0.2-2.1l1.9,0.7c1.1,0.4,2.6,0.6,3.2,0.2
	c0.1-0.1,0.3-0.2,0.3-0.7l0.1-1.8l1.6,0.6c0.4,0.2,1,0.3,1.3,0.1c0.3-0.2,0.6-0.7,0.7-1.4c0.2-0.8-1.1-2.5-1.9-3.6
	c-0.5-0.7-0.9-1.3-1.3-1.9c-0.3-0.5-0.5-0.9-0.8-1.3c-0.6-1-1.2-2-1.7-3.3c-0.8-2-0.1-3.8,1-4.3c0.2-0.1,0.4-0.2,0.5-0.3
	c0.3-0.2,0.6-0.3,0.9-0.5c0,0,0-0.1,0-0.1c-0.5-1.7-1.9-4.7-5.7-4.8c-0.4,0-0.9,0-1.3,0c-1.6,0.1-3.5,0.2-4.9-1.6
	c-1.3-1.7-3.3-7.2-4.3-9.9C212.5,407,205.5,410.5,202.5,412.1z"></path>
	<g>
	<path class="st3" d="M229.4,433.3c0,0,3,3.9,5.1,5.2"></path>
		<path class="st1" d="M233.9,439.6c-2.3-1.3-5.2-5.1-5.5-5.5l2-1.6c0.8,1,3.2,3.9,4.7,4.8L233.9,439.6z"></path>
</g>
	<g>
	<path class="st3" d="M224.6,435.8c0,0,3.2,3.8,5.4,4.9"></path>
		<path class="st1" d="M229.4,441.9c-2.4-1.2-5.4-4.8-5.7-5.2l2-1.6c0.8,1,3.3,3.8,5,4.6L229.4,441.9z"></path>
</g>
	<g>
	<path class="st3" d="M220.6,437.7c0,0,2.1,2.4,4.3,3.8"></path>
		<path class="st1" d="M224.2,442.7c-2.4-1.5-4.5-4-4.6-4.1l2-1.7c0,0,2,2.3,4,3.6L224.2,442.7z"></path>
</g>
	<path class="st0" d="M193.3,407.2c0.3,2.1,1.8,3.5,3.2,2.5c0.3,2,1.3,4.8,3.4,2.9c0.4,1.3,1.9,4.9,4.4,3.3c0.4,1.6,1.4,2.8,4,1.8
	c1.8-0.7,2.4-4.6,3.3-6.4c0.8-1.6,1.3-3,2.2-4.6c0.9-1.4,2-1.5,2.4-1.3c0.6,0.3,1.2,0.5,1.8,0.9c0.7,0.4,1.1-0.3,1.3-0.6
	c1.5-2.7,1.4-6.4,0.8-8c-0.8-1.8-2.9-3.9-2.2-5.9c0.7-2,4.5-7.6,6.3-10.1c-4.5-2.2-14.2-7.3-16.5-8.5
	C201.3,379.9,191.2,395.1,193.3,407.2z"></path>
	<path class="st1" d="M206.5,419.4c-0.6,0-1.1-0.1-1.5-0.3c-0.6-0.3-1.1-0.8-1.5-1.5c-0.6,0.1-1.2,0-1.6-0.2
	c-1.3-0.5-2.2-1.9-2.7-2.9c-0.6,0.1-1.1,0.1-1.4-0.1c-1.2-0.5-1.9-1.8-2.2-3.1c-0.3,0-0.7-0.1-1-0.2c-1.2-0.5-2.2-1.9-2.5-3.7l0,0
	c-2.1-12.3,7.6-27.6,14.7-35l0.7-0.7l0.9,0.5c2,1.1,11.9,6.3,16.4,8.5l1.4,0.7l-0.9,1.2c-2.1,2.9-5.5,8-6.1,9.7
	c-0.3,0.8,0.4,2,1.1,3.1c0.4,0.6,0.8,1.3,1.1,1.9c0.9,2.1,0.8,6.2-0.8,9.1c-0.2,0.4-0.6,1.1-1.5,1.3c-0.4,0.1-0.9,0.1-1.6-0.2
	c-0.4-0.2-0.8-0.4-1.1-0.6c-0.2-0.1-0.3-0.2-0.5-0.2c-0.1,0-0.5,0.1-0.9,0.8c-0.6,1-1,1.9-1.5,2.9c-0.2,0.5-0.4,1-0.7,1.5
	c-0.2,0.5-0.4,1.1-0.7,1.8c-0.7,2.1-1.5,4.4-3.3,5.2C207.9,419.2,207.2,419.4,206.5,419.4z M205,413.9l0.5,1.7
	c0.1,0.4,0.3,1,0.7,1.2c0.3,0.2,0.9,0.1,1.6-0.2c0.7-0.3,1.4-2.3,1.9-3.6c0.3-0.8,0.5-1.5,0.8-2.1c0.2-0.5,0.4-1,0.6-1.4
	c0.5-1.1,0.9-2.1,1.7-3.3c1.2-1.9,3-2.3,4.1-1.7c0.2,0.1,0.4,0.2,0.6,0.3c0.3,0.1,0.6,0.3,0.9,0.4c1.3-2.4,1.1-5.6,0.6-6.7
	c-0.2-0.5-0.5-1-0.9-1.5c-0.9-1.5-2-3.3-1.4-5.3c0.7-2.1,4-6.9,5.6-9.2c-4.4-2.2-11.3-5.8-14.3-7.4c-6.4,7-15.2,21.2-13.3,32.1l0,0
	c0.2,1,0.7,1.6,0.9,1.7c0.1,0,0.1,0,0.3-0.1l1.7-1.2l0.3,2.1c0.2,1.5,0.7,2.3,0.9,2.4c0,0,0.2-0.1,0.4-0.3l1.6-1.4l0.5,2
	c0.3,1.1,1,2.4,1.7,2.7c0.1,0,0.3,0.1,0.7-0.2L205,413.9z"></path>
	<g>
	<path class="st5" d="M206.1,409.2c0,0-1.5,4.7-1.2,7.2"></path>
		<path class="st1" d="M203.6,416.5c-0.2-2.6,1.1-7.2,1.3-7.7l2.5,0.8c-0.4,1.2-1.4,4.9-1.2,6.7L203.6,416.5z"></path>
</g>
	<g>
	<path class="st5" d="M201.3,406.7c0,0-1.3,4.8-0.9,7.2"></path>
		<path class="st1" d="M199.1,414.1c-0.4-2.6,0.8-7.2,1-7.7l2.5,0.7c-0.3,1.3-1.1,4.9-0.9,6.7L199.1,414.1z"></path>
</g>
	<g>
	<path class="st5" d="M197.4,404.5c0,0-0.8,3.1-0.6,5.7"></path>
		<path class="st1" d="M195.5,410.3c-0.2-2.8,0.6-6,0.7-6.1l2.5,0.6c0,0-0.7,3-0.6,5.3L195.5,410.3z"></path>
</g>
	<path class="st0" d="M208.7,362.5c-1.6,1.3-2.2,3.3-0.6,4c-1.6,1.2-3.6,3.5-0.9,4.4c-1,1-3.3,4-0.7,5.4c-1.2,1.2-1.8,2.6,0.4,4.3
	c1.5,1.2,5.2-0.1,7.2-0.2c1.8-0.1,3.3-0.4,5.1-0.3c1.7,0.1,2.3,1,2.3,1.5c0,0.7,0.1,1.3,0.1,2c0,0.8,1,1,1.3,1.1
	c1.3,0.4,5.6-0.3,7.6-4c0.9-1.7,1.5-4,3.6-4.4c2.1-0.4,8.8,0.2,11.9,0.5c-0.3-5-0.6-16-0.6-18.5
	C236.4,356.1,218.2,354.8,208.7,362.5z"></path>
	<path class="st1" d="M223.7,386.2c-0.5,0-0.9-0.1-1.2-0.2l-0.1,0c-1.8-0.5-2.1-1.5-2.1-2.3c0-0.4,0-0.8-0.1-1.3c0-0.2,0-0.4,0-0.6
	c-0.1-0.1-0.3-0.3-1.1-0.4c-1.1-0.1-2.1,0-3.3,0.1c-0.5,0.1-1.1,0.1-1.6,0.1c-0.5,0-1.2,0.2-1.9,0.3c-2.2,0.4-4.6,0.9-6.2-0.3
	c-1.2-1-1.9-2-1.9-3.1c0-0.7,0.2-1.4,0.6-2c-0.4-0.5-0.6-1.1-0.6-1.5c-0.2-1.4,0.5-2.8,1.2-3.8c-0.4-0.4-0.6-0.9-0.6-1.3
	c-0.2-1.3,0.7-2.5,1.6-3.5c-0.2-0.3-0.3-0.6-0.3-1c-0.2-1.3,0.6-2.9,2-4l0,0c9.7-7.8,27.8-6.9,37.7-4.4l0.9,0.2l0,1
	c0,2.3,0.3,13.3,0.6,18.5l0.1,1.5l-1.5-0.2c-3.5-0.4-9.7-0.9-11.5-0.5c-1,0.2-1.4,1.1-2.1,2.6c-0.2,0.4-0.4,0.8-0.6,1.2
	C229.7,384.9,226,386.2,223.7,386.2z M222.8,383.4c0.1,0,0.2,0.1,0.2,0.1l0.2,0.1c0.7,0.2,4.4-0.3,6.1-3.4c0.2-0.3,0.4-0.7,0.5-1.1
	c0.7-1.6,1.7-3.5,4-4c2.1-0.4,8,0.1,10.7,0.3c-0.2-4.9-0.5-12.9-0.5-16.1c-9.2-2.1-26-2.8-34.5,4.1l0,0c-0.8,0.7-1.1,1.4-1,1.7
	c0,0.1,0,0.1,0.2,0.2l1.9,0.9l-1.7,1.3c-1.2,0.9-1.7,1.7-1.7,2h0c0,0,0.1,0.1,0.4,0.2l2,0.7l-1.5,1.5c-0.8,0.8-1.6,2.1-1.5,2.8
	c0,0.1,0,0.3,0.5,0.5l1.6,0.8l-1.3,1.2c-0.3,0.3-0.7,0.8-0.7,1.1c0,0.3,0.4,0.8,1,1.3c0.6,0.5,2.7,0.1,4.1-0.2
	c0.8-0.2,1.6-0.3,2.2-0.3c0.5,0,1.1-0.1,1.6-0.1c1.2-0.1,2.3-0.2,3.7-0.2c2.2,0.1,3.5,1.5,3.5,2.7c0,0.2,0,0.4,0,0.6
	C222.7,382.6,222.8,383,222.8,383.4z"></path>
	<g>
	<path class="st4" d="M213.2,374.7c0,0-4.8,1-6.9,2.4"></path>
		<path class="st1" d="M207.1,378.2l-1.5-2.1c2.2-1.5,6.8-2.5,7.3-2.6l0.5,2.5C212.2,376.2,208.6,377.1,207.1,378.2z"></path>
</g>
	<g>
	<path class="st4" d="M213.1,369.3c0,0-4.8,1.2-6.7,2.7"></path>
		<path class="st1" d="M207.1,373l-1.6-2.1c2.1-1.6,6.7-2.8,7.2-2.9l0.6,2.5C212.1,370.9,208.5,371.9,207.1,373z"></path>
</g>
	<g>
	<path class="st4" d="M213,364.8c0,0-3.1,0.8-5.3,2.2"></path>
		<path class="st1" d="M208.4,368.1l-1.4-2.2c2.4-1.5,5.5-2.4,5.7-2.4l0.7,2.5C213.3,366,210.4,366.8,208.4,368.1z"></path>
</g>
	<path class="st0" d="M274.8,379.2c-3.7-8.9-11-21.1-20.7-24.6c-2-0.7-3.9-0.1-3.8,1.6c-1.9-0.7-4.8-1.3-4.2,1.5
	c-1.3-0.3-5.2-0.8-5,2.2c-1.6-0.4-3.2-0.2-3.5,2.6c-0.2,1.9,2.8,4.4,3.9,6.1c1,1.5,2,2.6,2.9,4.2c0.8,1.5,0.3,2.5-0.1,2.7
	c-0.6,0.4-1.1,0.8-1.7,1.1c-0.7,0.4-0.5,1.1-0.5,1.4c0.2,2,2.2,4.2,6.8,4.5c3.3,0.2,4.9-0.5,6.4,1.1"></path>
	<path class="st1" d="M254.3,384.4c-0.6-0.7-1.2-0.7-3-0.7c-0.7,0-1.5,0-2.5,0c-5.6-0.3-7.8-3.2-8-5.6c-0.1-0.5-0.2-1.8,1.1-2.6
	c0.4-0.2,0.7-0.5,1-0.7c0.2-0.1,0.3-0.2,0.5-0.3c0-0.1,0.1-0.5-0.2-1.1c-0.5-1-1.1-1.8-1.8-2.7c-0.3-0.4-0.6-0.9-1-1.3
	c-0.3-0.4-0.8-0.9-1.3-1.5c-1.5-1.6-3.1-3.5-2.9-5.5c0.2-1.5,0.8-2.6,1.7-3.3c0.6-0.4,1.2-0.6,2-0.6c0.2-0.6,0.6-1,0.9-1.3
	c1.1-0.9,2.7-1,3.9-0.9c0.2-0.6,0.5-1,0.8-1.2c1-0.8,2.5-0.8,3.8-0.4c0.2-0.3,0.4-0.6,0.7-0.8c1.1-0.8,2.8-1,4.4-0.4
	c12.2,4.4,19.4,20.5,21.4,25.4l-2.3,1.2c-3.8-9.4-11.1-20.9-20-24.1c-1-0.4-1.7-0.2-2,0c0,0-0.1,0.1-0.1,0.3l0.2,2.1l-2-0.8
	c-1.4-0.5-2.3-0.6-2.5-0.4c0,0,0,0.2,0.1,0.5l0.4,2l-2-0.5c-1.1-0.3-2.6-0.3-3.2,0.1c-0.1,0.1-0.2,0.2-0.2,0.7l0.1,1.8l-1.7-0.4
	c-0.4-0.1-1-0.2-1.3,0c-0.3,0.2-0.5,0.7-0.6,1.5c-0.1,0.8,1.3,2.4,2.2,3.4c0.6,0.6,1.1,1.2,1.5,1.7c0.3,0.4,0.6,0.9,0.9,1.3
	c0.7,1,1.4,1.9,2,3.1c1,1.9,0.5,3.7-0.5,4.4c-0.2,0.1-0.4,0.2-0.5,0.4c-0.4,0.2-0.7,0.5-1.1,0.7c0,0,0,0,0,0.1l0,0.2
	c0.1,1.5,1.9,3.1,5.6,3.3c0.9,0,1.6,0,2.3,0c1.9,0,3.7-0.2,5.3,2.2L254.3,384.4z"></path>
	<g>
	<path class="st2" d="M245.9,364.8c0,0-3.4-3.6-5.6-4.6"></path>
		<path class="st1" d="M245,365.7c-0.9-0.9-3.6-3.6-5.2-4.3l1.1-2.3c2.4,1.1,5.7,4.5,6,4.9L245,365.7z"></path>
</g>
	<g>
	<path class="st2" d="M250.5,361.9c0,0-3.5-3.4-5.8-4.4"></path>
		<path class="st1" d="M249.6,362.8c-0.9-0.9-3.7-3.4-5.4-4.1l1-2.4c2.5,1,5.9,4.3,6.2,4.6L249.6,362.8z"></path>
</g>
	<g>
	<path class="st2" d="M254.3,359.6c0,0-2.3-2.2-4.7-3.4"></path>
		<path class="st1" d="M253.4,360.5c0,0-2.2-2.1-4.3-3.2l1.1-2.3c2.5,1.2,4.9,3.5,5,3.6L253.4,360.5z"></path>
</g>
	<g>
	<path class="st0" d="M341.5,372.9l-6.2,4.3c-2.1-4.7-6.5-6.2-10.2-6.2c-8.1,0-12.1,7.2-12.1,13.8c0,7.4,5,14.1,12.2,14.1
		c3.8,0,8.3-1.8,10.2-6.3l6.6,3.8c-2.6,6.2-10.4,9.7-17.1,9.7c-11.8,0-20.1-10.9-20.1-21.4c0-10.1,7.6-20.7,20.5-20.7
		C332.9,363.8,338.8,367.5,341.5,372.9z"></path>
		<path class="st0" d="M364.9,363.8c12.1,0,20.1,10.7,20.1,21.2c0,11-8.6,21-20.3,21c-12.1,0-20.3-10.4-20.3-21.1
		C344.5,373.8,353.1,363.8,364.9,363.8z M376.9,384.9c0-7.2-4.6-13.9-12.1-13.9c-7.8,0-12.1,7-12.1,13.9c0,7.2,4.5,13.9,12.1,13.9
		C372.7,398.8,376.9,391.7,376.9,384.9z"></path>
		<path class="st0" d="M391.3,364.1h8.1v34.5h21.2v7.1h-29.3V364.1z"></path>
		<path class="st0" d="M442.5,363.8c12.1,0,20.1,10.7,20.1,21.2c0,11-8.5,21-20.3,21c-12.1,0-20.3-10.4-20.3-21.1
		C422,373.8,430.7,363.8,442.5,363.8z M454.5,384.9c0-7.2-4.6-13.9-12.1-13.9c-7.8,0-12.1,7-12.1,13.9c0,7.2,4.5,13.9,12.1,13.9
		C450.2,398.8,454.5,391.7,454.5,384.9z"></path>
		<path class="st0" d="M468.8,364.1h18.4c7.7,0,13.2,7,13.2,13.8c0,5.3-2.9,10.2-7.5,12.1l9.5,15.6h-8.9l-8.6-13.9h-8.1v13.9h-8.1
		V364.1z M487,384.6c3,0,5.3-3,5.3-6.7c0-3.9-2.8-6.7-5.6-6.7h-9.8v13.5H487z"></path>
		<path class="st0" d="M507.8,364.1h27.9v7.1h-19.9v10.7h16.5v6.6h-16.5v17.2h-8.1V364.1z"></path>
		<path class="st0" d="M557.9,364.1l15.3,41.6h-8.3l-3.9-10.4h-14.5l-3.8,10.4h-8.3l15.3-41.6H557.9z M553.8,372.4l-6,17.2h11.7
		L553.8,372.4z"></path>
		<path class="st0" d="M590.8,370.9c-4.4,0-6.6,1.7-6.6,4.7c0,3.4,3.2,4.3,9.5,5.9c8.2,2.1,13.4,4.7,13.4,12.3
		c0,9-7.3,12.4-15.4,12.4c-6.2,0-12.6-2-17.5-5.4l3.6-7c1.4,1.4,7.7,5.1,14,5.1c4.4,0,6.7-1.5,6.7-4.3c0-3.7-4.3-4.7-10.8-6.5
		c-7.9-2.2-11.8-4.9-11.8-11.2c0-8.5,6.7-13.1,15.2-13.1c5.8,0,10.9,2.2,14.5,4.6L602,375C600.9,373.8,595.8,370.9,590.8,370.9z"></path>
		<path class="st0" d="M630.9,371.2v34.5h-8v-34.5h-13.3v-7.1h34.6v7.1H630.9z"></path>
</g>
	<g>
	<path class="st0" d="M308.7,428.3h0.3c1.1,0,2-1,2.2-5.1l0.1-3.5h8.3v8.6h1.5v5.2h-2.5v-2.7h-7.5v2.7h-2.5V428.3z M316.8,428.3V422
		h-3l-0.1,1.4c-0.1,2.8-0.5,4.2-1.1,4.8H316.8z"></path>
		<path class="st0" d="M323,419.7h2.8v7.3l5-7.3h2.6v11.1h-2.8v-7.1l-4.9,7.1H323V419.7z"></path>
		<path class="st0" d="M335.1,428.5l2.3-1c0.5,0.7,1.2,1.2,2.4,1.2c1.3,0,2.1-0.6,2.1-1.4c0-0.8-0.6-1.3-1.8-1.3H339v-1.8h1.2
		c0.8,0,1.3-0.5,1.3-1.2s-0.6-1.2-1.7-1.2c-1,0-1.6,0.4-2,1.1l-2.1-1.1c0.8-1.4,2.3-2.2,4.3-2.2c2.3,0,4.1,1.1,4.1,3.1
		c0,1-0.4,2-1.5,2.4c1.4,0.4,2.1,1.4,2.1,2.7c0,2.1-1.9,3.3-4.6,3.3C337.6,430.9,336,430,335.1,428.5z"></path>
		<path class="st0" d="M350.5,423.9c0.9,0,1.9,0.1,2.7,0.4v-0.6c0-1.4-0.8-2.2-2.5-2.2c-1.2,0-2.3,0.4-3.5,1.2l-0.9-1.9
		c1.5-1,3-1.4,4.7-1.4c3.2,0,5,1.6,5,4.6v3.5c0,0.6,0.2,0.8,0.7,0.9v2.3c-0.5,0.1-0.9,0.1-1.2,0.1c-1.1,0-1.7-0.6-1.8-1.3l-0.1-0.6
		c-1,1.2-2.5,1.9-4,1.9c-2.2,0-3.9-1.5-3.9-3.5C345.7,425.3,347.7,423.9,350.5,423.9z M353.2,427.1v-1.1c-0.7-0.3-1.5-0.4-2.2-0.4
		c-1.5,0-2.5,0.7-2.5,1.7c0,0.8,0.7,1.7,2,1.7c0.8,0,1.7-0.3,2.2-0.8C353,427.7,353.2,427.3,353.2,427.1z"></path>
		<path class="st0" d="M358.6,419.7h2.8v7.3l5-7.3h2.6v11.1h-2.8v-7.1l-4.9,7.1h-2.6V419.7z M360.6,415.6h1.5c0,0.8,0.6,1.5,1.8,1.5
		c1.2,0,1.7-0.6,1.8-1.5h1.5c0,1.6-1.2,2.7-3.3,2.7C361.8,418.3,360.6,417.2,360.6,415.6z"></path>
		<path class="st0" d="M371.6,419.6h2.8v4.2h4.5v-4.2h2.8v11.1h-2.8v-4.5h-4.5v4.5h-2.8V419.6z"></path>
		<path class="st0" d="M384.3,423.6h6.4v2.6h-6.4V423.6z"></path>
		<path class="st0" d="M393.2,419.6h3l3.5,6.4l3.5-6.4h2.9v11.1h-2.7v-7.2l-2.8,5.2h-1.8l-2.9-5.2v7.2h-2.7V419.6z"></path>
		<path class="st0" d="M412.7,423.9c0.9,0,1.9,0.1,2.7,0.4v-0.6c0-1.4-0.8-2.2-2.5-2.2c-1.2,0-2.3,0.4-3.5,1.2l-0.9-1.9
		c1.5-1,3-1.4,4.7-1.4c3.2,0,5,1.6,5,4.6v3.5c0,0.6,0.2,0.8,0.7,0.9v2.3c-0.5,0.1-0.9,0.1-1.2,0.1c-1.1,0-1.7-0.6-1.8-1.3l-0.1-0.6
		c-1,1.2-2.5,1.9-4,1.9c-2.2,0-3.9-1.5-3.9-3.5C407.9,425.3,409.9,423.9,412.7,423.9z M415.4,427.1v-1.1c-0.7-0.3-1.5-0.4-2.2-0.4
		c-1.5,0-2.5,0.7-2.5,1.7c0,0.8,0.7,1.7,2,1.7c0.8,0,1.7-0.3,2.2-0.8C415.1,427.7,415.4,427.3,415.4,427.1z"></path>
		<path class="st0" d="M420.1,425.2c0-3.1,2.2-5.7,5.8-5.7c2.4,0,4.2,1.1,5,2.8l-2.8,0.8c-0.5-0.8-1.3-1.3-2.3-1.3
		c-1.6,0-2.9,1.4-2.9,3.3c0,1.9,1.3,3.3,2.9,3.3c1,0,2-0.6,2.3-1.3l2.8,0.8c-0.8,1.7-2.6,2.9-5,2.9
		C422.4,431,420.1,428.3,420.1,425.2z"></path>
		<path class="st0" d="M435.3,422.1h-3.5v-2.5h9.9v2.5h-3.5v8.6h-2.8V422.1z"></path>
		<path class="st0" d="M442.6,425.3c0-3.2,2.2-5.8,5.9-5.8s5.8,2.7,5.8,5.7c0,0.4,0,0.7-0.1,1h-8.6c0.1,1.7,1.5,2.8,2.9,2.8
		c1.1,0,2.3-0.6,2.6-1.5l2.4,0.7c-0.8,1.7-2.7,2.9-5.2,2.9C444.9,431,442.6,428.3,442.6,425.3z M451.3,424.3
		c-0.2-1.7-1.4-2.8-2.9-2.8c-1.5,0-2.7,1.1-2.9,2.8H451.3z"></path>
		<path class="st0" d="M458.8,435.2H456v-15.6h2.5v1.9c0.8-1.3,2.2-2.1,3.8-2.1c3,0,5.2,2.6,5.2,5.7c0,3.2-2,5.8-4.8,5.8
		c-1.7,0-3.1-0.8-3.8-2.2V435.2z M461.5,421.9c-1.1,0-2.3,0.8-2.7,1.9v2.6c0.5,1.2,1.7,2.2,2.9,2.2c1.7,0,2.9-1.6,2.9-3.4
		C464.6,423.3,463.3,421.9,461.5,421.9z"></path>
		<path class="st0" d="M468.7,425.2c0-3.1,2.2-5.7,5.8-5.7c2.4,0,4.2,1.1,5,2.8l-2.8,0.8c-0.5-0.8-1.3-1.3-2.3-1.3
		c-1.6,0-2.9,1.4-2.9,3.3c0,1.9,1.3,3.3,2.9,3.3c1,0,2-0.6,2.3-1.3l2.8,0.8c-0.8,1.7-2.6,2.9-5,2.9C471,431,468.7,428.3,468.7,425.2
		z"></path>
		<path class="st0" d="M481.3,419.6h2.8v4.2h1l3-4.2h3.1l-3.9,5.4l4.4,5.7h-3.2l-3.3-4.4h-0.9v4.4h-2.8V419.6z"></path>
		<path class="st0" d="M497.3,423.9c0.9,0,1.9,0.1,2.7,0.4v-0.6c0-1.4-0.8-2.2-2.5-2.2c-1.2,0-2.3,0.4-3.5,1.2l-0.9-1.9
		c1.5-1,3-1.4,4.7-1.4c3.2,0,5,1.6,5,4.6v3.5c0,0.6,0.2,0.8,0.7,0.9v2.3c-0.5,0.1-0.9,0.1-1.2,0.1c-1.1,0-1.7-0.6-1.8-1.3l-0.1-0.6
		c-1,1.2-2.5,1.9-4,1.9c-2.2,0-3.9-1.5-3.9-3.5C492.5,425.3,494.5,423.9,497.3,423.9z M500,427.1v-1.1c-0.7-0.3-1.5-0.4-2.2-0.4
		c-1.5,0-2.5,0.7-2.5,1.7c0,0.8,0.7,1.7,2,1.7c0.8,0,1.7-0.3,2.2-0.8C499.7,427.7,500,427.3,500,427.1z"></path>
		<path class="st0" d="M507.7,426.4c-1.3-0.4-2.2-1.4-2.2-3.2c0-2.2,1.6-3.6,4-3.6h5.3v11.1h-2.8v-3.8h-1.5l-2.4,3.8h-3.1
		L507.7,426.4z M511.9,424.9v-3.1h-2c-1,0-1.7,0.6-1.7,1.5c0,0.9,0.5,1.6,1.5,1.6H511.9z"></path>
</g>
</svg>
